<svg xmlns="http://www.w3.org/2000/svg" viewBox="0 0 940 430" width="940" height="430" role="img" aria-label="Two-panel grouped bar chart across seven real packages at the default four checkers. Left panel, peak resident memory: ztsc uses 6 to 22 megabytes, tsgo 43 to 275 megabytes &#8212; ztsc is 6 to 21 percent of tsgo on every package. Right panel, wall clock: ztsc takes 13 to 24 milliseconds, tsgo 22 to 242 milliseconds &#8212; ztsc is 8 to 58 percent of tsgo's time.">
  <style>
    text { font-family: ui-monospace, "SF Mono", SFMono-Regular, Menlo, Consolas, monospace; fill: #1c1b18; }
    .t11 { font-size: 11px; }
    .t12 { font-size: 12px; }
    .bl  { font-size: 12px; }
    .dim { fill: #52514e; }
    .mut { fill: #898781; }
    .acc { fill: #8f6800; }
    .bz  { fill: #eda100; }
    .bt  { fill: #2a78d6; }
    .hairv { stroke: #e3e2da; stroke-width: 1; }
  </style>
  <rect class="bz" x="20" y="12" width="12" height="12" rx="2"/>
  <text class="t11 mut" x="38" y="22">ztsc</text>
  <rect class="bt" x="78" y="12" width="12" height="12" rx="2"/>
  <text class="t11 mut" x="96" y="22">tsgo 7.0.2</text>
  <text class="t12 dim" x="210" y="22">peak RSS · MB · lower is better</text>
  <text class="t12 dim" x="620" y="22">wall clock · ms</text>
  <line class="hairv" x1="590" y1="34" x2="590" y2="390"/>

      <text class="t12 dim" x="195" y="64" text-anchor="end">@types/node</text>
      <rect class="bz" x="210" y="44" width="19" height="14" rx="2"/>
      <text class="bl" x="237" y="55">18 <tspan class="acc">· 18%</tspan></text>
      <rect class="bt" x="210" y="61" width="105" height="14" rx="2"/>
      <text class="bl" x="323" y="72">100</text>
      <rect class="bz" x="620" y="44" width="19" height="14" rx="2"/>
      <text class="bl" x="647" y="55">17 <tspan class="acc">· 35%</tspan></text>
      <rect class="bt" x="620" y="61" width="54" height="14" rx="2"/>
      <text class="bl" x="682" y="72">48</text>
      <text class="t12 dim" x="195" y="116" text-anchor="end">drizzle-orm</text>
      <rect class="bz" x="210" y="96" width="24" height="14" rx="2"/>
      <text class="bl" x="242" y="107">22 <tspan class="acc">· 8%</tspan></text>
      <rect class="bt" x="210" y="113" width="290" height="14" rx="2"/>
      <text class="bl" x="508" y="124">275</text>
      <rect class="bz" x="620" y="96" width="27" height="14" rx="2"/>
      <text class="bl" x="655" y="107">24 <tspan class="acc">· 10%</tspan></text>
      <rect class="bt" x="620" y="113" width="270" height="14" rx="2"/>
      <text class="bl" x="898" y="124">242</text>
      <text class="t12 dim" x="195" y="168" text-anchor="end">hono</text>
      <rect class="bz" x="210" y="148" width="15" height="14" rx="2"/>
      <text class="bl" x="233" y="159">15 <tspan class="acc">· 9%</tspan></text>
      <rect class="bt" x="210" y="165" width="165" height="14" rx="2"/>
      <text class="bl" x="383" y="176">157</text>
      <rect class="bz" x="620" y="148" width="20" height="14" rx="2"/>
      <text class="bl" x="648" y="159">18 <tspan class="acc">· 10%</tspan></text>
      <rect class="bt" x="620" y="165" width="200" height="14" rx="2"/>
      <text class="bl" x="828" y="176">179</text>
      <text class="t12 dim" x="195" y="220" text-anchor="end">@sinclair/typebox</text>
      <rect class="bz" x="210" y="200" width="16" height="14" rx="2"/>
      <text class="bl" x="234" y="211">16 <tspan class="acc">· 20%</tspan></text>
      <rect class="bt" x="210" y="217" width="83" height="14" rx="2"/>
      <text class="bl" x="301" y="228">78</text>
      <rect class="bz" x="620" y="200" width="21" height="14" rx="2"/>
      <text class="bl" x="649" y="211">18 <tspan class="acc">· 36%</tspan></text>
      <rect class="bt" x="620" y="217" width="57" height="14" rx="2"/>
      <text class="bl" x="685" y="228">51</text>
      <text class="t12 dim" x="195" y="272" text-anchor="end">ajv</text>
      <rect class="bz" x="210" y="252" width="11" height="14" rx="2"/>
      <text class="bl" x="229" y="263">10 <tspan class="acc">· 21%</tspan></text>
      <rect class="bt" x="210" y="269" width="52" height="14" rx="2"/>
      <text class="bl" x="270" y="280">50</text>
      <rect class="bz" x="620" y="252" width="16" height="14" rx="2"/>
      <text class="bl" x="644" y="263">14 <tspan class="acc">· 58%</tspan></text>
      <rect class="bt" x="620" y="269" width="28" height="14" rx="2"/>
      <text class="bl" x="656" y="280">25</text>
      <text class="t12 dim" x="195" y="324" text-anchor="end">zod</text>
      <rect class="bz" x="210" y="304" width="9" height="14" rx="2"/>
      <text class="bl" x="227" y="315">9 <tspan class="acc">· 6%</tspan></text>
      <rect class="bt" x="210" y="321" width="149" height="14" rx="2"/>
      <text class="bl" x="367" y="332">141</text>
      <rect class="bz" x="620" y="304" width="15" height="14" rx="2"/>
      <text class="bl" x="643" y="315">13 <tspan class="acc">· 8%</tspan></text>
      <rect class="bt" x="620" y="321" width="178" height="14" rx="2"/>
      <text class="bl" x="806" y="332">159</text>
      <text class="t12 dim" x="195" y="376" text-anchor="end">chalk</text>
      <rect class="bz" x="210" y="356" width="7" height="14" rx="2"/>
      <text class="bl" x="225" y="367">6 <tspan class="acc">· 15%</tspan></text>
      <rect class="bt" x="210" y="373" width="46" height="14" rx="2"/>
      <text class="bl" x="264" y="384">43</text>
      <rect class="bz" x="620" y="356" width="14" height="14" rx="2"/>
      <text class="bl" x="642" y="367">13 <tspan class="acc">· 58%</tspan></text>
      <rect class="bt" x="620" y="373" width="24" height="14" rx="2"/>
      <text class="bl" x="652" y="384">22</text>
  <text class="t11 mut" x="20" y="416">Apple M4 · vendored published .d.ts, identical inputs · both tools at their default 4 checkers · median of 11 wall / 5 RSS runs</text>
</svg>
