<svg xmlns="http://www.w3.org/2000/svg" viewBox="0 0 940 482" width="940" height="482" role="img" aria-label="Two-panel grouped bar chart across eight real packages at the default four checkers. Left panel, peak resident memory: ztsc uses 6 to 22 megabytes, tsgo 44 to 275 megabytes &#8212; ztsc is 8 to 20 percent of tsgo on every package. Right panel, wall clock: ztsc takes 7 to 25 milliseconds, tsgo 18 to 242 milliseconds &#8212; ztsc is 8 to 39 percent of tsgo's time.">
  <style>
    text { font-family: ui-monospace, "SF Mono", SFMono-Regular, Menlo, Consolas, monospace; fill: #1c1b18; }
    .t11 { font-size: 11px; }
    .t12 { font-size: 12px; }
    .bl  { font-size: 12px; }
    .dim { fill: #52514e; }
    .mut { fill: #898781; }
    .acc { fill: #8f6800; }
    .bz  { fill: #eda100; }
    .bt  { fill: #2a78d6; }
    .hairv { stroke: #e3e2da; stroke-width: 1; }
  </style>
  <rect class="bz" x="20" y="12" width="12" height="12" rx="2"/>
  <text class="t11 mut" x="38" y="22">ztsc</text>
  <rect class="bt" x="78" y="12" width="12" height="12" rx="2"/>
  <text class="t11 mut" x="96" y="22">tsgo 7.0.2</text>
  <text class="t12 dim" x="210" y="22">peak RSS · MB · lower is better</text>
  <text class="t12 dim" x="620" y="22">wall clock · ms</text>
  <line class="hairv" x1="590" y1="34" x2="590" y2="442"/>

      <text class="t12 dim" x="195" y="64" text-anchor="end">@types/node</text>
      <rect class="bz" x="210" y="44" width="18" height="14" rx="2"/>
      <text class="bl" x="236" y="55">17 <tspan class="acc">· 17%</tspan></text>
      <rect class="bt" x="210" y="61" width="107" height="14" rx="2"/>
      <text class="bl" x="325" y="72">101</text>
      <rect class="bz" x="620" y="44" width="17" height="14" rx="2"/>
      <text class="bl" x="645" y="55">16 <tspan class="acc">· 34%</tspan></text>
      <rect class="bt" x="620" y="61" width="51" height="14" rx="2"/>
      <text class="bl" x="679" y="72">46</text>
      <text class="t12 dim" x="195" y="116" text-anchor="end">@types/react</text>
      <rect class="bz" x="210" y="96" width="19" height="14" rx="2"/>
      <text class="bl" x="237" y="107">18 <tspan class="acc">· 10%</tspan></text>
      <rect class="bt" x="210" y="113" width="196" height="14" rx="2"/>
      <text class="bl" x="414" y="124">186</text>
      <rect class="bz" x="620" y="96" width="26" height="14" rx="2"/>
      <text class="bl" x="654" y="107">23 <tspan class="acc">· 9%</tspan></text>
      <rect class="bt" x="620" y="113" width="270" height="14" rx="2"/>
      <text class="bl" x="898" y="124">242</text>
      <text class="t12 dim" x="195" y="168" text-anchor="end">drizzle-orm</text>
      <rect class="bz" x="210" y="148" width="24" height="14" rx="2"/>
      <text class="bl" x="242" y="159">22 <tspan class="acc">· 8%</tspan></text>
      <rect class="bt" x="210" y="165" width="290" height="14" rx="2"/>
      <text class="bl" x="508" y="176">275</text>
      <rect class="bz" x="620" y="148" width="23" height="14" rx="2"/>
      <text class="bl" x="651" y="159">20 <tspan class="acc">· 8%</tspan></text>
      <rect class="bt" x="620" y="165" width="265" height="14" rx="2"/>
      <text class="bl" x="893" y="176">238</text>
      <text class="t12 dim" x="195" y="220" text-anchor="end">hono</text>
      <rect class="bz" x="210" y="200" width="22" height="14" rx="2"/>
      <text class="bl" x="240" y="211">21 <tspan class="acc">· 13%</tspan></text>
      <rect class="bt" x="210" y="217" width="167" height="14" rx="2"/>
      <text class="bl" x="385" y="228">159</text>
      <rect class="bz" x="620" y="200" width="28" height="14" rx="2"/>
      <text class="bl" x="656" y="211">25 <tspan class="acc">· 14%</tspan></text>
      <rect class="bt" x="620" y="217" width="194" height="14" rx="2"/>
      <text class="bl" x="822" y="228">174</text>
      <text class="t12 dim" x="195" y="272" text-anchor="end">@sinclair/typebox</text>
      <rect class="bz" x="210" y="252" width="16" height="14" rx="2"/>
      <text class="bl" x="234" y="263">15 <tspan class="acc">· 20%</tspan></text>
      <rect class="bt" x="210" y="269" width="82" height="14" rx="2"/>
      <text class="bl" x="300" y="280">77</text>
      <rect class="bz" x="620" y="252" width="17" height="14" rx="2"/>
      <text class="bl" x="645" y="263">15 <tspan class="acc">· 31%</tspan></text>
      <rect class="bt" x="620" y="269" width="53" height="14" rx="2"/>
      <text class="bl" x="681" y="280">48</text>
      <text class="t12 dim" x="195" y="324" text-anchor="end">ajv</text>
      <rect class="bz" x="210" y="304" width="10" height="14" rx="2"/>
      <text class="bl" x="228" y="315">10 <tspan class="acc">· 20%</tspan></text>
      <rect class="bt" x="210" y="321" width="53" height="14" rx="2"/>
      <text class="bl" x="271" y="332">50</text>
      <rect class="bz" x="620" y="304" width="10" height="14" rx="2"/>
      <text class="bl" x="638" y="315">9 <tspan class="acc">· 39%</tspan></text>
      <rect class="bt" x="620" y="321" width="26" height="14" rx="2"/>
      <text class="bl" x="654" y="332">24</text>
      <text class="t12 dim" x="195" y="376" text-anchor="end">zod</text>
      <rect class="bz" x="210" y="356" width="19" height="14" rx="2"/>
      <text class="bl" x="237" y="367">18 <tspan class="acc">· 13%</tspan></text>
      <rect class="bt" x="210" y="373" width="144" height="14" rx="2"/>
      <text class="bl" x="362" y="384">136</text>
      <rect class="bz" x="620" y="356" width="24" height="14" rx="2"/>
      <text class="bl" x="652" y="367">21 <tspan class="acc">· 14%</tspan></text>
      <rect class="bt" x="620" y="373" width="174" height="14" rx="2"/>
      <text class="bl" x="802" y="384">156</text>
      <text class="t12 dim" x="195" y="428" text-anchor="end">chalk</text>
      <rect class="bz" x="210" y="408" width="7" height="14" rx="2"/>
      <text class="bl" x="225" y="419">6 <tspan class="acc">· 14%</tspan></text>
      <rect class="bt" x="210" y="425" width="46" height="14" rx="2"/>
      <text class="bl" x="264" y="436">44</text>
      <rect class="bz" x="620" y="408" width="7" height="14" rx="2"/>
      <text class="bl" x="635" y="419">7 <tspan class="acc">· 37%</tspan></text>
      <rect class="bt" x="620" y="425" width="20" height="14" rx="2"/>
      <text class="bl" x="648" y="436">18</text>
  <text class="t11 mut" x="20" y="468">Apple M4 · vendored published .d.ts, identical inputs · both tools at their default 4 checkers · median of 11 wall / 5 RSS runs</text>
</svg>
