<svg xmlns="http://www.w3.org/2000/svg" viewBox="0 0 940 482" width="940" height="482" role="img" aria-label="Two-panel grouped bar chart across eight real packages at the default four checkers. Left panel, peak resident memory: ztsc uses 7 to 23 megabytes, tsgo 44 to 272 megabytes &#8212; ztsc is 8 to 20 percent of tsgo on every package. Right panel, wall clock: ztsc takes 9 to 34 milliseconds, tsgo 19 to 248 milliseconds &#8212; ztsc is 9 to 47 percent of tsgo's time.">
  <style>
    text { font-family: ui-monospace, "SF Mono", SFMono-Regular, Menlo, Consolas, monospace; fill: #f0efe8; }
    .t11 { font-size: 11px; }
    .t12 { font-size: 12px; }
    .bl  { font-size: 12px; }
    .dim { fill: #c3c2b7; }
    .mut { fill: #8f8d85; }
    .acc { fill: #e0a33f; }
    .bz  { fill: #eda100; }
    .bt  { fill: #3987e5; }
    .hairv { stroke: #2c2c2a; stroke-width: 1; }
  </style>
  <rect class="bz" x="20" y="12" width="12" height="12" rx="2"/>
  <text class="t11 mut" x="38" y="22">ztsc</text>
  <rect class="bt" x="78" y="12" width="12" height="12" rx="2"/>
  <text class="t11 mut" x="96" y="22">tsgo 7.0.2</text>
  <text class="t12 dim" x="210" y="22">peak RSS · MB · lower is better</text>
  <text class="t12 dim" x="620" y="22">wall clock · ms</text>
  <line class="hairv" x1="590" y1="34" x2="590" y2="442"/>

      <text class="t12 dim" x="195" y="64" text-anchor="end">@types/node</text>
      <rect class="bz" x="210" y="44" width="18" height="14" rx="2"/>
      <text class="bl" x="236" y="55">17 <tspan class="acc">· 17%</tspan></text>
      <rect class="bt" x="210" y="61" width="109" height="14" rx="2"/>
      <text class="bl" x="327" y="72">102</text>
      <rect class="bz" x="620" y="44" width="21" height="14" rx="2"/>
      <text class="bl" x="649" y="55">19 <tspan class="acc">· 41%</tspan></text>
      <rect class="bt" x="620" y="61" width="51" height="14" rx="2"/>
      <text class="bl" x="679" y="72">47</text>
      <text class="t12 dim" x="195" y="116" text-anchor="end">@types/react</text>
      <rect class="bz" x="210" y="96" width="18" height="14" rx="2"/>
      <text class="bl" x="236" y="107">17 <tspan class="acc">· 9%</tspan></text>
      <rect class="bt" x="210" y="113" width="199" height="14" rx="2"/>
      <text class="bl" x="417" y="124">187</text>
      <rect class="bz" x="620" y="96" width="34" height="14" rx="2"/>
      <text class="bl" x="662" y="107">32 <tspan class="acc">· 13%</tspan></text>
      <rect class="bt" x="620" y="113" width="270" height="14" rx="2"/>
      <text class="bl" x="898" y="124">248</text>
      <text class="t12 dim" x="195" y="168" text-anchor="end">drizzle-orm</text>
      <rect class="bz" x="210" y="148" width="24" height="14" rx="2"/>
      <text class="bl" x="242" y="159">23 <tspan class="acc">· 8%</tspan></text>
      <rect class="bt" x="210" y="165" width="290" height="14" rx="2"/>
      <text class="bl" x="508" y="176">272</text>
      <rect class="bz" x="620" y="148" width="24" height="14" rx="2"/>
      <text class="bl" x="652" y="159">22 <tspan class="acc">· 9%</tspan></text>
      <rect class="bt" x="620" y="165" width="262" height="14" rx="2"/>
      <text class="bl" x="890" y="176">240</text>
      <text class="t12 dim" x="195" y="220" text-anchor="end">hono</text>
      <rect class="bz" x="210" y="200" width="23" height="14" rx="2"/>
      <text class="bl" x="241" y="211">21 <tspan class="acc">· 14%</tspan></text>
      <rect class="bt" x="210" y="217" width="167" height="14" rx="2"/>
      <text class="bl" x="385" y="228">157</text>
      <rect class="bz" x="620" y="200" width="37" height="14" rx="2"/>
      <text class="bl" x="665" y="211">34 <tspan class="acc">· 19%</tspan></text>
      <rect class="bt" x="620" y="217" width="189" height="14" rx="2"/>
      <text class="bl" x="817" y="228">173</text>
      <text class="t12 dim" x="195" y="272" text-anchor="end">@sinclair/typebox</text>
      <rect class="bz" x="210" y="252" width="17" height="14" rx="2"/>
      <text class="bl" x="235" y="263">16 <tspan class="acc">· 20%</tspan></text>
      <rect class="bt" x="210" y="269" width="83" height="14" rx="2"/>
      <text class="bl" x="301" y="280">78</text>
      <rect class="bz" x="620" y="252" width="18" height="14" rx="2"/>
      <text class="bl" x="646" y="263">16 <tspan class="acc">· 33%</tspan></text>
      <rect class="bt" x="620" y="269" width="53" height="14" rx="2"/>
      <text class="bl" x="681" y="280">49</text>
      <text class="t12 dim" x="195" y="324" text-anchor="end">ajv</text>
      <rect class="bz" x="210" y="304" width="11" height="14" rx="2"/>
      <text class="bl" x="229" y="315">10 <tspan class="acc">· 20%</tspan></text>
      <rect class="bt" x="210" y="321" width="53" height="14" rx="2"/>
      <text class="bl" x="271" y="332">50</text>
      <rect class="bz" x="620" y="304" width="13" height="14" rx="2"/>
      <text class="bl" x="641" y="315">12 <tspan class="acc">· 47%</tspan></text>
      <rect class="bt" x="620" y="321" width="27" height="14" rx="2"/>
      <text class="bl" x="655" y="332">25</text>
      <text class="t12 dim" x="195" y="376" text-anchor="end">zod</text>
      <rect class="bz" x="210" y="356" width="18" height="14" rx="2"/>
      <text class="bl" x="236" y="367">17 <tspan class="acc">· 13%</tspan></text>
      <rect class="bt" x="210" y="373" width="145" height="14" rx="2"/>
      <text class="bl" x="363" y="384">136</text>
      <rect class="bz" x="620" y="356" width="34" height="14" rx="2"/>
      <text class="bl" x="662" y="367">31 <tspan class="acc">· 20%</tspan></text>
      <rect class="bt" x="620" y="373" width="171" height="14" rx="2"/>
      <text class="bl" x="799" y="384">157</text>
      <text class="t12 dim" x="195" y="428" text-anchor="end">chalk</text>
      <rect class="bz" x="210" y="408" width="7" height="14" rx="2"/>
      <text class="bl" x="225" y="419">7 <tspan class="acc">· 15%</tspan></text>
      <rect class="bt" x="210" y="425" width="47" height="14" rx="2"/>
      <text class="bl" x="265" y="436">44</text>
      <rect class="bz" x="620" y="408" width="10" height="14" rx="2"/>
      <text class="bl" x="638" y="419">9 <tspan class="acc">· 47%</tspan></text>
      <rect class="bt" x="620" y="425" width="21" height="14" rx="2"/>
      <text class="bl" x="649" y="436">19</text>
  <text class="t11 mut" x="20" y="468">Apple M4 · vendored published .d.ts, identical inputs · both tools at their default 4 checkers · median of 11 wall / 5 RSS runs</text>
</svg>
