<svg xmlns="http://www.w3.org/2000/svg" viewBox="0 0 940 482" width="940" height="482" role="img" aria-label="Two-panel grouped bar chart across eight real packages at the default four checkers. Left panel, peak resident memory: ztsc uses 8 to 25 megabytes, tsgo 46 to 286 megabytes &#8212; ztsc is 7 to 20 percent of tsgo on every package. Right panel, wall clock: ztsc takes 8 to 31 milliseconds, tsgo 19 to 244 milliseconds &#8212; ztsc is 10 to 64 percent of tsgo's time.">
  <style>
    text { font-family: ui-monospace, "SF Mono", SFMono-Regular, Menlo, Consolas, monospace; fill: #f0efe8; }
    .t11 { font-size: 11px; }
    .t12 { font-size: 12px; }
    .bl  { font-size: 12px; }
    .dim { fill: #c3c2b7; }
    .mut { fill: #8f8d85; }
    .acc { fill: #e0a33f; }
    .bz  { fill: #eda100; }
    .bt  { fill: #3987e5; }
    .hairv { stroke: #2c2c2a; stroke-width: 1; }
  </style>
  <rect class="bz" x="20" y="12" width="12" height="12" rx="2"/>
  <text class="t11 mut" x="38" y="22">ztsc</text>
  <rect class="bt" x="78" y="12" width="12" height="12" rx="2"/>
  <text class="t11 mut" x="96" y="22">tsgo 7.0.2</text>
  <text class="t12 dim" x="210" y="22">peak RSS · MB · lower is better</text>
  <text class="t12 dim" x="620" y="22">wall clock · ms</text>
  <line class="hairv" x1="590" y1="34" x2="590" y2="442"/>

      <text class="t12 dim" x="195" y="64" text-anchor="end">@types/node</text>
      <rect class="bz" x="210" y="44" width="18" height="14" rx="2"/>
      <text class="bl" x="236" y="55">18 <tspan class="acc">· 17%</tspan></text>
      <rect class="bt" x="210" y="61" width="108" height="14" rx="2"/>
      <text class="bl" x="326" y="72">107</text>
      <rect class="bz" x="620" y="44" width="14" height="14" rx="2"/>
      <text class="bl" x="642" y="55">13 <tspan class="acc">· 29%</tspan></text>
      <rect class="bt" x="620" y="61" width="50" height="14" rx="2"/>
      <text class="bl" x="678" y="72">45</text>
      <text class="t12 dim" x="195" y="116" text-anchor="end">@types/react</text>
      <rect class="bz" x="210" y="96" width="24" height="14" rx="2"/>
      <text class="bl" x="242" y="107">23 <tspan class="acc">· 12%</tspan></text>
      <rect class="bt" x="210" y="113" width="203" height="14" rx="2"/>
      <text class="bl" x="421" y="124">200</text>
      <rect class="bz" x="620" y="96" width="30" height="14" rx="2"/>
      <text class="bl" x="658" y="107">27 <tspan class="acc">· 11%</tspan></text>
      <rect class="bt" x="620" y="113" width="270" height="14" rx="2"/>
      <text class="bl" x="898" y="124">244</text>
      <text class="t12 dim" x="195" y="168" text-anchor="end">drizzle-orm</text>
      <rect class="bz" x="210" y="148" width="19" height="14" rx="2"/>
      <text class="bl" x="237" y="159">19 <tspan class="acc">· 7%</tspan></text>
      <rect class="bt" x="210" y="165" width="290" height="14" rx="2"/>
      <text class="bl" x="508" y="176">286</text>
      <rect class="bz" x="620" y="148" width="26" height="14" rx="2"/>
      <text class="bl" x="654" y="159">23 <tspan class="acc">· 10%</tspan></text>
      <rect class="bt" x="620" y="165" width="256" height="14" rx="2"/>
      <text class="bl" x="884" y="176">232</text>
      <text class="t12 dim" x="195" y="220" text-anchor="end">hono</text>
      <rect class="bz" x="210" y="200" width="25" height="14" rx="2"/>
      <text class="bl" x="243" y="211">25 <tspan class="acc">· 15%</tspan></text>
      <rect class="bt" x="210" y="217" width="164" height="14" rx="2"/>
      <text class="bl" x="382" y="228">161</text>
      <rect class="bz" x="620" y="200" width="34" height="14" rx="2"/>
      <text class="bl" x="662" y="211">31 <tspan class="acc">· 18%</tspan></text>
      <rect class="bt" x="620" y="217" width="191" height="14" rx="2"/>
      <text class="bl" x="819" y="228">173</text>
      <text class="t12 dim" x="195" y="272" text-anchor="end">@sinclair/typebox</text>
      <rect class="bz" x="210" y="252" width="14" height="14" rx="2"/>
      <text class="bl" x="232" y="263">14 <tspan class="acc">· 17%</tspan></text>
      <rect class="bt" x="210" y="269" width="83" height="14" rx="2"/>
      <text class="bl" x="301" y="280">82</text>
      <rect class="bz" x="620" y="252" width="34" height="14" rx="2"/>
      <text class="bl" x="662" y="263">31 <tspan class="acc">· 64%</tspan></text>
      <rect class="bt" x="620" y="269" width="53" height="14" rx="2"/>
      <text class="bl" x="681" y="280">48</text>
      <text class="t12 dim" x="195" y="324" text-anchor="end">ajv</text>
      <rect class="bz" x="210" y="304" width="11" height="14" rx="2"/>
      <text class="bl" x="229" y="315">11 <tspan class="acc">· 20%</tspan></text>
      <rect class="bt" x="210" y="321" width="53" height="14" rx="2"/>
      <text class="bl" x="271" y="332">52</text>
      <rect class="bz" x="620" y="304" width="11" height="14" rx="2"/>
      <text class="bl" x="639" y="315">10 <tspan class="acc">· 43%</tspan></text>
      <rect class="bt" x="620" y="321" width="25" height="14" rx="2"/>
      <text class="bl" x="653" y="332">23</text>
      <text class="t12 dim" x="195" y="376" text-anchor="end">zod</text>
      <rect class="bz" x="210" y="356" width="23" height="14" rx="2"/>
      <text class="bl" x="241" y="367">23 <tspan class="acc">· 16%</tspan></text>
      <rect class="bt" x="210" y="373" width="145" height="14" rx="2"/>
      <text class="bl" x="363" y="384">143</text>
      <rect class="bz" x="620" y="356" width="28" height="14" rx="2"/>
      <text class="bl" x="656" y="367">25 <tspan class="acc">· 16%</tspan></text>
      <rect class="bt" x="620" y="373" width="172" height="14" rx="2"/>
      <text class="bl" x="800" y="384">155</text>
      <text class="t12 dim" x="195" y="428" text-anchor="end">chalk</text>
      <rect class="bz" x="210" y="408" width="9" height="14" rx="2"/>
      <text class="bl" x="227" y="419">8 <tspan class="acc">· 18%</tspan></text>
      <rect class="bt" x="210" y="425" width="46" height="14" rx="2"/>
      <text class="bl" x="264" y="436">46</text>
      <rect class="bz" x="620" y="408" width="8" height="14" rx="2"/>
      <text class="bl" x="636" y="419">8 <tspan class="acc">· 41%</tspan></text>
      <rect class="bt" x="620" y="425" width="20" height="14" rx="2"/>
      <text class="bl" x="648" y="436">19</text>
  <text class="t11 mut" x="20" y="468">Apple M4 · vendored published .d.ts, identical inputs · both tools at their default 4 checkers · median of 11 wall / 5 RSS runs</text>
</svg>
