<svg xmlns="http://www.w3.org/2000/svg" viewBox="0 0 940 482" width="940" height="482" role="img" aria-label="Two-panel grouped bar chart across eight real packages at the default four checkers. Left panel, peak resident memory: ztsc uses 7 to 31 megabytes, tsgo 44 to 274 megabytes &#8212; ztsc is 9 to 23 percent of tsgo on every package. Right panel, wall clock: ztsc takes 8 to 31 milliseconds, tsgo 18 to 249 milliseconds &#8212; ztsc is 10 to 43 percent of tsgo's time.">
  <style>
    text { font-family: ui-monospace, "SF Mono", SFMono-Regular, Menlo, Consolas, monospace; fill: #1c1b18; }
    .t11 { font-size: 11px; }
    .t12 { font-size: 12px; }
    .bl  { font-size: 12px; }
    .dim { fill: #52514e; }
    .mut { fill: #898781; }
    .acc { fill: #8f6800; }
    .bz  { fill: #eda100; }
    .bt  { fill: #2a78d6; }
    .hairv { stroke: #e3e2da; stroke-width: 1; }
  </style>
  <rect class="bz" x="20" y="12" width="12" height="12" rx="2"/>
  <text class="t11 mut" x="38" y="22">ztsc</text>
  <rect class="bt" x="78" y="12" width="12" height="12" rx="2"/>
  <text class="t11 mut" x="96" y="22">tsgo 7.0.2</text>
  <text class="t12 dim" x="210" y="22">peak RSS · MB · lower is better</text>
  <text class="t12 dim" x="620" y="22">wall clock · ms</text>
  <line class="hairv" x1="590" y1="34" x2="590" y2="442"/>

      <text class="t12 dim" x="195" y="64" text-anchor="end">@types/node</text>
      <rect class="bz" x="210" y="44" width="20" height="14" rx="2"/>
      <text class="bl" x="238" y="55">19 <tspan class="acc">· 18%</tspan></text>
      <rect class="bt" x="210" y="61" width="108" height="14" rx="2"/>
      <text class="bl" x="326" y="72">102</text>
      <rect class="bz" x="620" y="44" width="21" height="14" rx="2"/>
      <text class="bl" x="649" y="55">19 <tspan class="acc">· 42%</tspan></text>
      <rect class="bt" x="620" y="61" width="49" height="14" rx="2"/>
      <text class="bl" x="677" y="72">45</text>
      <text class="t12 dim" x="195" y="116" text-anchor="end">@types/react</text>
      <rect class="bz" x="210" y="96" width="28" height="14" rx="2"/>
      <text class="bl" x="246" y="107">27 <tspan class="acc">· 15%</tspan></text>
      <rect class="bt" x="210" y="113" width="194" height="14" rx="2"/>
      <text class="bl" x="412" y="124">184</text>
      <rect class="bz" x="620" y="96" width="29" height="14" rx="2"/>
      <text class="bl" x="657" y="107">27 <tspan class="acc">· 11%</tspan></text>
      <rect class="bt" x="620" y="113" width="262" height="14" rx="2"/>
      <text class="bl" x="890" y="124">241</text>
      <text class="t12 dim" x="195" y="168" text-anchor="end">drizzle-orm</text>
      <rect class="bz" x="210" y="148" width="25" height="14" rx="2"/>
      <text class="bl" x="243" y="159">24 <tspan class="acc">· 9%</tspan></text>
      <rect class="bt" x="210" y="165" width="290" height="14" rx="2"/>
      <text class="bl" x="508" y="176">274</text>
      <rect class="bz" x="620" y="148" width="26" height="14" rx="2"/>
      <text class="bl" x="654" y="159">24 <tspan class="acc">· 10%</tspan></text>
      <rect class="bt" x="620" y="165" width="270" height="14" rx="2"/>
      <text class="bl" x="898" y="176">249</text>
      <text class="t12 dim" x="195" y="220" text-anchor="end">hono</text>
      <rect class="bz" x="210" y="200" width="33" height="14" rx="2"/>
      <text class="bl" x="251" y="211">31 <tspan class="acc">· 20%</tspan></text>
      <rect class="bt" x="210" y="217" width="165" height="14" rx="2"/>
      <text class="bl" x="383" y="228">156</text>
      <rect class="bz" x="620" y="200" width="34" height="14" rx="2"/>
      <text class="bl" x="662" y="211">31 <tspan class="acc">· 18%</tspan></text>
      <rect class="bt" x="620" y="217" width="187" height="14" rx="2"/>
      <text class="bl" x="815" y="228">172</text>
      <text class="t12 dim" x="195" y="272" text-anchor="end">@sinclair/typebox</text>
      <rect class="bz" x="210" y="252" width="18" height="14" rx="2"/>
      <text class="bl" x="236" y="263">17 <tspan class="acc">· 21%</tspan></text>
      <rect class="bt" x="210" y="269" width="83" height="14" rx="2"/>
      <text class="bl" x="301" y="280">78</text>
      <rect class="bz" x="620" y="252" width="18" height="14" rx="2"/>
      <text class="bl" x="646" y="263">16 <tspan class="acc">· 34%</tspan></text>
      <rect class="bt" x="620" y="269" width="52" height="14" rx="2"/>
      <text class="bl" x="680" y="280">48</text>
      <text class="t12 dim" x="195" y="324" text-anchor="end">ajv</text>
      <rect class="bz" x="210" y="304" width="12" height="14" rx="2"/>
      <text class="bl" x="230" y="315">12 <tspan class="acc">· 23%</tspan></text>
      <rect class="bt" x="210" y="321" width="53" height="14" rx="2"/>
      <text class="bl" x="271" y="332">50</text>
      <rect class="bz" x="620" y="304" width="11" height="14" rx="2"/>
      <text class="bl" x="639" y="315">10 <tspan class="acc">· 43%</tspan></text>
      <rect class="bt" x="620" y="321" width="26" height="14" rx="2"/>
      <text class="bl" x="654" y="332">24</text>
      <text class="t12 dim" x="195" y="376" text-anchor="end">zod</text>
      <rect class="bz" x="210" y="356" width="27" height="14" rx="2"/>
      <text class="bl" x="245" y="367">25 <tspan class="acc">· 18%</tspan></text>
      <rect class="bt" x="210" y="373" width="145" height="14" rx="2"/>
      <text class="bl" x="363" y="384">137</text>
      <rect class="bz" x="620" y="356" width="29" height="14" rx="2"/>
      <text class="bl" x="657" y="367">27 <tspan class="acc">· 17%</tspan></text>
      <rect class="bt" x="620" y="373" width="167" height="14" rx="2"/>
      <text class="bl" x="795" y="384">154</text>
      <text class="t12 dim" x="195" y="428" text-anchor="end">chalk</text>
      <rect class="bz" x="210" y="408" width="8" height="14" rx="2"/>
      <text class="bl" x="226" y="419">7 <tspan class="acc">· 17%</tspan></text>
      <rect class="bt" x="210" y="425" width="46" height="14" rx="2"/>
      <text class="bl" x="264" y="436">44</text>
      <rect class="bz" x="620" y="408" width="8" height="14" rx="2"/>
      <text class="bl" x="636" y="419">8 <tspan class="acc">· 41%</tspan></text>
      <rect class="bt" x="620" y="425" width="20" height="14" rx="2"/>
      <text class="bl" x="648" y="436">18</text>
  <text class="t11 mut" x="20" y="468">Apple M4 · vendored published .d.ts, identical inputs · both tools at their default 4 checkers · median of 11 wall / 5 RSS runs</text>
</svg>
